<svg id="Layer_1" data-name="Layer 1" xmlns="http://www.w3.org/2000/svg" viewBox="0 0 435.16 500"><defs><style>.cls-1{fill:#ff6d00;}.cls-2{fill:#161a1d;}</style></defs><path class="cls-1" d="M395.37,185C383.15,88.4,306.38,11.91,209.68.12,208.9.05,208.07,0,207.26,0a23.72,23.72,0,0,0-2.7,47.29,1.09,1.09,0,0,0,.33.05A166.2,166.2,0,0,1,348.24,190.51c.05.5.1,1,.19,1.47a23.69,23.69,0,0,0,20.74,20,1.76,1.76,0,0,0,.34,0c3.59.33,7.19.16,13-2.82a23.48,23.48,0,0,0,13.06-20.88A22.39,22.39,0,0,0,395.37,185Z"/><path class="cls-1" d="M183.52,69.73A142.39,142.39,0,0,0,41.14,212.11a144,144,0,0,0,1.43,20.26c2.76,19.3,26.46,27.11,40.24,13.32h0a23.39,23.39,0,0,0,6.79-19.8A95.36,95.36,0,0,1,88.74,207c2.52-48.16,41.69-87.25,89.85-89.68a94.93,94.93,0,0,1,99.8,98.16c-1.8,51.92-46.09,93.19-98,91.5a94.48,94.48,0,0,1-10.59-.93,23.4,23.4,0,0,0-19.85,6.74h0c-13.74,13.74-6.08,37.48,13.15,40.25a144.31,144.31,0,0,0,23.28,1.43c76-1.48,138.15-63.7,139.52-139.73A142.39,142.39,0,0,0,183.52,69.73Z"/><path class="cls-2" d="M254.61,208.48c0-.42-.08-.85-.1-1.3,0-.74-.09-1.5-.17-2.23s-.14-1.16-.21-1.76l-.21-1.71c-.12-.71-.24-1.4-.38-2.11-.07-.4-.14-.85-.22-1.26-.16-.85-.35-1.66-.54-2.49-.07-.26-.14-.54-.19-.8-.26-1-.52-1.93-.81-2.88,0-.11-.05-.21-.07-.33-.66-2.21-1.45-4.39-2.3-6.5,0-.1-.07-.19-.12-.29s0,0,0,0a71.46,71.46,0,0,0-38.9-38.64l-.09,0-.17-.07c-.92-.38-1.87-.74-2.82-1.07l-.64-.21c-.83-.29-1.66-.57-2.52-.83l-1-.29c-.75-.21-1.49-.42-2.25-.61-.43-.1-.88-.19-1.3-.31-.67-.14-1.36-.31-2.05-.45L196,142c-.62-.09-1.24-.21-1.83-.31s-1.26-.16-1.9-.23-1-.15-1.59-.19c-.76-.08-1.52-.12-2.28-.17a10.51,10.51,0,0,0-1.25-.09c-1.21-.08-2.4-.1-3.61-.1a71.19,71.19,0,0,0-71.19,71.19,72.79,72.79,0,0,0,.4,7.57c0,.38.1.74.14,1.09.1.83.19,1.66.34,2.47.07.55.19,1.09.28,1.64l.36,1.92c.12.57.26,1.12.4,1.69s.29,1.23.45,1.85a3.2,3.2,0,0,0,.1.42,23.43,23.43,0,0,1-6.2,22.69L84.22,277.82a23.73,23.73,0,0,0,33.56,33.56l17.53-17.51,6.86-6.86a23.53,23.53,0,0,1,22.71-6.2l.26.08c.74.19,1.47.35,2.21.52.47.12,1,.23,1.45.33s1.23.24,1.82.36,1.19.21,1.78.3,1.29.19,1.93.27,1.11.16,1.66.21a71.17,71.17,0,0,0,78.71-70.79C254.7,210.88,254.68,209.67,254.61,208.48Zm-69.24,19a11.87,11.87,0,1,1,11.86-11.86A11.88,11.88,0,0,1,185.37,227.51Zm26.14-21.23a23.73,23.73,0,1,1,23.73-23.73A23.74,23.74,0,0,1,211.51,206.28Z"/><path class="cls-1" d="M8.18,448.74a31,31,0,0,1,2.58-12.56,33,33,0,0,1,7-10.31,32.92,32.92,0,0,1,35.75-6.93,32.94,32.94,0,0,1,10.4,6.93,32,32,0,0,1,7,10.31,32.54,32.54,0,0,1,0,25.16,32,32,0,0,1-7,10.26,33,33,0,0,1-10.4,6.94,32.07,32.07,0,0,1-12.7,2.53,32.07,32.07,0,0,1-12.7-2.53,32.41,32.41,0,0,1-10.35-6.94,33,33,0,0,1-7-10.26A30.87,30.87,0,0,1,8.18,448.74Zm15.18-.1a18.09,18.09,0,0,0,1.36,7A17.8,17.8,0,0,0,34,465.23a17.08,17.08,0,0,0,13.59,0,18.19,18.19,0,0,0,5.53-3.84,17.67,17.67,0,0,0,3.74-5.72,18.09,18.09,0,0,0,1.36-7,17.49,17.49,0,0,0-1.36-6.88,17.79,17.79,0,0,0-9.32-9.52,16.95,16.95,0,0,0-13.49,0,17.68,17.68,0,0,0-5.58,3.85,18,18,0,0,0-3.75,5.67A17.49,17.49,0,0,0,23.36,448.64Z"/><path class="cls-2" d="M133.66,455.49a29.33,29.33,0,0,1-1.73,10.21,24.36,24.36,0,0,1-4.83,8.06,22.12,22.12,0,0,1-7.4,5.29,23.26,23.26,0,0,1-9.56,1.93,18.65,18.65,0,0,1-8.67-1.79,15.16,15.16,0,0,1-5.57-4.87v5.81h-14V412.66h14v23.8a15.66,15.66,0,0,1,5.57-4.92,18,18,0,0,1,8.58-1.83,23.71,23.71,0,0,1,9.6,1.92A21.52,21.52,0,0,1,127.1,437a25.46,25.46,0,0,1,4.83,8.16A29.62,29.62,0,0,1,133.66,455.49ZM95.9,453.42v3.94a10.66,10.66,0,0,0,3.65,7,11.62,11.62,0,0,0,8,2.81,12,12,0,0,0,4.87-.94,11.37,11.37,0,0,0,3.7-2.53,10.53,10.53,0,0,0,2.34-3.75,12.83,12.83,0,0,0,.8-4.49,13.51,13.51,0,0,0-.8-4.64,10.87,10.87,0,0,0-6-6.42,12,12,0,0,0-4.87-.94,11.31,11.31,0,0,0-11.62,9.93Z"/><path class="cls-2" d="M140.69,445.36q0-7.49,5.39-11.57t15.23-4.08q10.2,0,15.51,4.31t5.48,11.91H168.15q-.19-5.54-6.75-5.53-6.84,0-6.84,4.4a3.79,3.79,0,0,0,2.15,3.52,20.57,20.57,0,0,0,5.35,1.87q3.18.71,6.93,1.36a27.82,27.82,0,0,1,6.94,2.15,14.8,14.8,0,0,1,5.34,4.22,11.8,11.8,0,0,1,2.15,7.5A13.5,13.5,0,0,1,178,476.71q-5.39,4.17-16.25,4.17-11.25,0-16.73-4.36a14.3,14.3,0,0,1-5.48-11.85h14.05q.47,5.63,8.16,5.62,7.49,0,7.49-4.4a3.5,3.5,0,0,0-2.11-3.38,21.65,21.65,0,0,0-5.29-1.64c-2.13-.4-4.42-.82-6.89-1.26a27.44,27.44,0,0,1-6.89-2.16,13.86,13.86,0,0,1-5.29-4.31Q140.68,450.34,140.69,445.36Z"/><path class="cls-2" d="M203.66,458.48a12,12,0,0,0,3.85,7.17,11.45,11.45,0,0,0,8,2.77,10.63,10.63,0,0,0,5.53-1.5,10.76,10.76,0,0,0,3.84-3.66h15.09a21.62,21.62,0,0,1-8.57,12.89,25.61,25.61,0,0,1-7.31,3.56,29.87,29.87,0,0,1-8.86,1.27,27.24,27.24,0,0,1-10.35-1.93,24.28,24.28,0,0,1-8.16-5.34,25.19,25.19,0,0,1-5.39-8.1,26.18,26.18,0,0,1-2-10.22,27.07,27.07,0,0,1,1.92-10.26,24,24,0,0,1,13.45-13.5,27.1,27.1,0,0,1,10.3-1.92,29.36,29.36,0,0,1,9.7,1.55,24.4,24.4,0,0,1,7.83,4.4,22.87,22.87,0,0,1,5.48,6.85,24.47,24.47,0,0,1,2.67,8.76c.13,1.44.2,2.51.24,3.23s0,1.27,0,1.64q0,1.13-.09,2.34Zm22.22-7.68a9.91,9.91,0,0,0-3.57-6.14,12,12,0,0,0-14.33-.05,11.83,11.83,0,0,0-3.85,6.19Z"/><path class="cls-2" d="M248.74,430.65h14v8.9a20,20,0,0,1,7.83-7.4,21.92,21.92,0,0,1,10.17-2.44v14.72H280a23.33,23.33,0,0,0-6,.79,16,16,0,0,0-5.43,2.58,15.24,15.24,0,0,0-4,4.36,13.31,13.31,0,0,0-1.88,6v21.93h-14Z"/><path class="cls-2" d="M301.78,480.13l-18.46-49.48h15.09l11.06,32.61,11.24-32.61h15l-18.47,49.48Z"/><path class="cls-2" d="M351.54,458.48a12,12,0,0,0,3.85,7.17,11.45,11.45,0,0,0,8,2.77,11.23,11.23,0,0,0,9.37-5.16h15.09a21.62,21.62,0,0,1-8.57,12.89,25.74,25.74,0,0,1-7.31,3.56,29.87,29.87,0,0,1-8.86,1.27,27.33,27.33,0,0,1-10.36-1.93,24.34,24.34,0,0,1-8.15-5.34,25.19,25.19,0,0,1-5.39-8.1,26.18,26.18,0,0,1-2-10.22,26.88,26.88,0,0,1,1.93-10.26,24.34,24.34,0,0,1,5.34-8.15,24.61,24.61,0,0,1,8.1-5.35,27.15,27.15,0,0,1,10.31-1.92,29.41,29.41,0,0,1,9.7,1.55,24.4,24.4,0,0,1,7.83,4.4,23,23,0,0,1,5.48,6.85,24.67,24.67,0,0,1,2.67,8.76c.12,1.44.2,2.51.23,3.23s0,1.27,0,1.64q0,1.13-.09,2.34Zm22.21-7.68a9.86,9.86,0,0,0-3.56-6.14,12.05,12.05,0,0,0-14.34-.05A11.88,11.88,0,0,0,352,450.8Z"/><path class="cls-2" d="M396.62,430.65h14v8.9a19.93,19.93,0,0,1,7.83-7.4,21.91,21.91,0,0,1,10.16-2.44v14.72h-.65a23.33,23.33,0,0,0-6,.79,16,16,0,0,0-5.43,2.58,15.24,15.24,0,0,0-4,4.36,13.31,13.31,0,0,0-1.88,6v21.93h-14Z"/></svg>