<svg id="Layer_1" data-name="Layer 1" xmlns="http://www.w3.org/2000/svg" viewBox="0 0 500 124.7"><defs><style>.cls-1{fill:#ff6d00;}.cls-2{fill:#161a1d;}</style></defs><path class="cls-1" d="M4.27,63.79A26.53,26.53,0,0,1,6.48,53a28.58,28.58,0,0,1,6-8.86,27.86,27.86,0,0,1,8.9-5.95A27.51,27.51,0,0,1,32.27,36a27.55,27.55,0,0,1,10.9,2.17,28.33,28.33,0,0,1,8.93,5.95,27.77,27.77,0,0,1,6,8.86,28,28,0,0,1,0,21.6,27.77,27.77,0,0,1-6,8.81,28.35,28.35,0,0,1-8.93,6,28.1,28.1,0,0,1-30.7-6,28.59,28.59,0,0,1-6-8.81A26.48,26.48,0,0,1,4.27,63.79Zm13-.08a15.54,15.54,0,0,0,1.17,6,15.33,15.33,0,0,0,8,8.21A14.67,14.67,0,0,0,38.1,78a15.41,15.41,0,0,0,4.75-3.3,15.22,15.22,0,0,0,3.22-4.91,15.72,15.72,0,0,0,1.16-6,15.28,15.28,0,0,0-1.16-5.92,15.48,15.48,0,0,0-3.22-4.87,15.33,15.33,0,0,0-4.79-3.29,14.48,14.48,0,0,0-11.59,0,15.17,15.17,0,0,0-4.78,3.29,15.48,15.48,0,0,0-3.22,4.87A15.1,15.1,0,0,0,17.3,63.71Z"/><path class="cls-2" d="M112,69.58a25.11,25.11,0,0,1-1.49,8.77,20.91,20.91,0,0,1-4.14,6.92A19.24,19.24,0,0,1,100,89.82a20,20,0,0,1-8.21,1.65,16,16,0,0,1-7.44-1.53,13.11,13.11,0,0,1-4.79-4.19v5h-12V32.81h12V53.25A13.5,13.5,0,0,1,84.37,49a15.57,15.57,0,0,1,7.36-1.57A20.26,20.26,0,0,1,100,49.1a18.63,18.63,0,0,1,6.4,4.63,21.82,21.82,0,0,1,4.14,7A25.36,25.36,0,0,1,112,69.58ZM79.58,67.81v3.38a9.14,9.14,0,0,0,3.14,6,10,10,0,0,0,6.84,2.41,10.32,10.32,0,0,0,4.18-.81,9.65,9.65,0,0,0,3.18-2.17,8.87,8.87,0,0,0,2-3.22,10.94,10.94,0,0,0,.69-3.86,11.53,11.53,0,0,0-.69-4,9.36,9.36,0,0,0-5.19-5.51,10.32,10.32,0,0,0-4.18-.81,9.72,9.72,0,0,0-10,8.53Z"/><path class="cls-2" d="M118,60.89q0-6.44,4.63-9.94t13.07-3.5q8.77,0,13.32,3.7a12.92,12.92,0,0,1,4.71,10.22H141.62q-.17-4.74-5.8-4.74-5.87,0-5.87,3.78a3.25,3.25,0,0,0,1.85,3A17.75,17.75,0,0,0,136.39,65c1.82.4,3.81.79,6,1.16a23.56,23.56,0,0,1,6,1.85,12.69,12.69,0,0,1,4.58,3.62,10.07,10.07,0,0,1,1.85,6.44,11.63,11.63,0,0,1-4.62,9.7q-4.63,3.57-14,3.58-9.66,0-14.37-3.74a12.34,12.34,0,0,1-4.7-10.18h12.07c.26,3.22,2.6,4.82,7,4.82s6.43-1.26,6.43-3.78a3,3,0,0,0-1.81-2.89,18.19,18.19,0,0,0-4.54-1.41q-2.74-.52-5.92-1.09a23,23,0,0,1-5.91-1.85,12,12,0,0,1-4.55-3.7A11,11,0,0,1,118,60.89Z"/><path class="cls-2" d="M172.11,72.16a10.29,10.29,0,0,0,3.3,6.15,9.89,9.89,0,0,0,6.84,2.38A9.13,9.13,0,0,0,187,79.4a9.34,9.34,0,0,0,3.3-3.14h12.95a18.67,18.67,0,0,1-2.69,6.28,18.45,18.45,0,0,1-4.67,4.78,21.71,21.71,0,0,1-6.28,3.06,25.29,25.29,0,0,1-7.6,1.09,23.41,23.41,0,0,1-8.89-1.65,20.87,20.87,0,0,1-7-4.59,21.57,21.57,0,0,1-4.63-7,22.51,22.51,0,0,1-1.69-8.77,23.21,23.21,0,0,1,1.65-8.81A20.65,20.65,0,0,1,173,49.1a23.09,23.09,0,0,1,8.85-1.65,25.39,25.39,0,0,1,8.33,1.33,21.27,21.27,0,0,1,6.72,3.78,19.66,19.66,0,0,1,4.7,5.88A21.3,21.3,0,0,1,203.9,66c.1,1.23.17,2.16.2,2.78s0,1.08,0,1.4c0,.65,0,1.32-.08,2Zm19.07-6.6a8.48,8.48,0,0,0-3.05-5.27,10.36,10.36,0,0,0-12.32,0,10.1,10.1,0,0,0-3.29,5.31Z"/><path class="cls-2" d="M210.82,48.26h12V55.9a17.14,17.14,0,0,1,6.72-6.35,18.75,18.75,0,0,1,8.73-2.1V60.09h-.56a20.24,20.24,0,0,0-5.15.68A14,14,0,0,0,227.87,63a13.42,13.42,0,0,0-3.46,3.74,11.66,11.66,0,0,0-1.61,5.19V90.74h-12Z"/><path class="cls-2" d="M256.36,90.74,240.51,48.26h13l9.5,28,9.65-28h12.88L269.63,90.74Z"/><path class="cls-2" d="M299.08,72.16a10.29,10.29,0,0,0,3.3,6.15,9.89,9.89,0,0,0,6.84,2.38A9.13,9.13,0,0,0,314,79.4a9.34,9.34,0,0,0,3.3-3.14h13a18.67,18.67,0,0,1-2.69,6.28,18.45,18.45,0,0,1-4.67,4.78,21.78,21.78,0,0,1-6.27,3.06A25.4,25.4,0,0,1,309,91.47a23.41,23.41,0,0,1-8.89-1.65,20.87,20.87,0,0,1-7-4.59,21.57,21.57,0,0,1-4.63-7,22.51,22.51,0,0,1-1.69-8.77,23.21,23.21,0,0,1,1.65-8.81A20.65,20.65,0,0,1,300,49.1a23.09,23.09,0,0,1,8.85-1.65,25.39,25.39,0,0,1,8.33,1.33,21.05,21.05,0,0,1,6.72,3.78,19.66,19.66,0,0,1,4.7,5.88,21.09,21.09,0,0,1,2.3,7.52c.1,1.23.17,2.16.2,2.78s0,1.08,0,1.4c0,.65,0,1.32-.08,2Zm19.07-6.6a8.48,8.48,0,0,0-3-5.27,10.35,10.35,0,0,0-12.31,0,10.11,10.11,0,0,0-3.3,5.31Z"/><path class="cls-2" d="M337.79,48.26h12V55.9a17.14,17.14,0,0,1,6.72-6.35,18.75,18.75,0,0,1,8.73-2.1V60.09h-.56a20.24,20.24,0,0,0-5.15.68A14,14,0,0,0,354.84,63a13.42,13.42,0,0,0-3.46,3.74,11.66,11.66,0,0,0-1.61,5.19V90.74h-12Z"/><path class="cls-1" d="M498.47,64.9a70.45,70.45,0,0,0-61.23-61c-.26,0-.53,0-.8,0a7.83,7.83,0,0,0-.89,15.6h.11a54.8,54.8,0,0,1,47.27,47.21c0,.17,0,.32.06.49a7.82,7.82,0,0,0,6.84,6.58h.11a7,7,0,0,0,4.3-.93A7.73,7.73,0,0,0,498.55,66,7.88,7.88,0,0,0,498.47,64.9Z"/><path class="cls-1" d="M428.61,26.9a47,47,0,0,0-46.95,46.95,46.18,46.18,0,0,0,.48,6.68,7.81,7.81,0,0,0,13.26,4.39h0a7.7,7.7,0,0,0,2.24-6.53,32.12,32.12,0,0,1-.28-6.23,31.3,31.3,0,1,1,30.21,33,31,31,0,0,1-3.49-.31,7.7,7.7,0,0,0-6.54,2.23h0a7.82,7.82,0,0,0,4.33,13.27,47,47,0,0,0,53.69-45.61A47,47,0,0,0,428.61,26.9Z"/><path class="cls-2" d="M452.05,72.65c0-.14,0-.28,0-.43s0-.49,0-.74-.05-.38-.07-.57l-.07-.57c0-.23-.08-.46-.13-.69s-.05-.29-.07-.42c-.05-.28-.12-.55-.18-.82a2.61,2.61,0,0,1-.06-.27c-.09-.32-.17-.63-.27-.94,0,0,0-.07,0-.11-.22-.73-.48-1.45-.76-2.15,0,0,0-.06,0-.09s0,0,0,0a23.58,23.58,0,0,0-12.82-12.74h0l-.06,0-.93-.35-.21-.07c-.28-.09-.55-.19-.83-.27l-.33-.1-.74-.2-.43-.1-.68-.15-.51-.1-.61-.1-.62-.08-.53-.06-.75,0a2.83,2.83,0,0,0-.41,0c-.4,0-.79,0-1.19,0a23.48,23.48,0,0,0-23.48,23.48,23.13,23.13,0,0,0,.14,2.5c0,.12,0,.24,0,.36s.07.54.11.81.07.36.1.54l.11.63c0,.19.09.37.14.56s.09.41.15.61a.35.35,0,0,0,0,.14,7.72,7.72,0,0,1-2,7.48l-8,8a7.82,7.82,0,0,0,11.06,11.06l5.79-5.78L415,98.54a7.77,7.77,0,0,1,7.49-2l.08,0,.73.18.48.11.6.11L425,97l.63.08c.18,0,.37.06.55.07a22.5,22.5,0,0,0,2.48.13,23.46,23.46,0,0,0,23.47-23.47C452.08,73.44,452.08,73,452.05,72.65Zm-22.83,6.27A3.91,3.91,0,1,1,433.13,75,3.91,3.91,0,0,1,429.22,78.92Zm8.62-7a7.83,7.83,0,1,1,7.83-7.82A7.82,7.82,0,0,1,437.84,71.92Z"/></svg>